<svg xmlns="http://www.w3.org/2000/svg" height="800" width="1200" viewBox="-81.675 -21.24 707.85 127.44"><g fill="#CD2027"><path d="M361.34 42.36c0 7.109-5.71 12.87-12.75 12.87s-12.75-5.761-12.75-12.87c0-7.11 5.71-12.88 12.75-12.88s12.75 5.77 12.75 12.88zM283.25 35h-22.37c2-2.92 5.7-4.96 9.5-5.42h.02c.53-.07 1.06-.1 1.6-.1s1.07.03 1.6.1h.03c3.82.46 7.61 2.5 9.62 5.42z"/><path d="M501.75 0c-16.94 0-31.57 9.79-38.5 23.98C456.32 9.79 441.69 0 424.75 0c-16.54 0-30.89 9.33-38 22.99-3.67-7.04-9.26-12.94-16.08-16.99v36.48c0 12.1-9.79 21.92-21.87 21.92-12.08 0-21.88-9.82-21.88-21.92 0-12.101 9.8-21.92 21.88-21.92.29 0 .58.01.87.02 4.34.25 8.34 2.25 11.67 4.59V1.88C357.36.65 353.13 0 348.75 0c-16.94 0-31.57 9.79-38.5 23.98C303.32 9.79 288.69 0 271.75 0c-16.54 0-30.89 9.33-38 22.99C226.64 9.33 212.29 0 195.75 0c-16.94 0-31.57 9.79-38.5 23.98C150.32 9.79 135.69 0 118.75 0c-16.54 0-30.89 9.33-38 22.99C73.64 9.33 59.29 0 42.75 0 19.14 0 0 19.02 0 42.48c0 23.46 19.14 42.48 42.75 42.48 16.54 0 30.89-9.33 38-22.99 7.11 13.66 21.46 22.99 38 22.99 16.94 0 31.57-9.79 38.5-23.979 6.93 14.189 21.56 23.979 38.5 23.979 16.54 0 30.89-9.33 38-22.99 7.11 13.66 21.46 22.99 38 22.99 16.94 0 31.57-9.79 38.5-23.979 6.93 14.189 21.56 23.979 38.5 23.979 16.54 0 30.89-9.33 38-22.99 7.11 13.66 21.46 22.99 38 22.99 16.94 0 31.57-9.79 38.5-23.979 6.93 14.189 21.56 23.979 38.5 23.979 23.61 0 42.75-19.02 42.75-42.479C544.5 19.02 525.36 0 501.75 0zM42.62 64.58c-12.08 0-21.87-9.811-21.87-21.91 0-12.11 9.79-21.92 21.87-21.92 12.09 0 21.88 9.81 21.88 21.92 0 12.1-9.79 21.91-21.88 21.91zm76.59-.18c-12.08 0-21.88-9.82-21.88-21.92 0-12.101 9.8-21.92 21.88-21.92 12.08 0 21.87 9.82 21.87 21.92 0 12.1-9.79 21.92-21.87 21.92zm88.8-24.07c-.96-6.15-6.23-10.85-12.59-10.85-7.04 0-12.75 5.76-12.75 12.88v20.72h-8.91v-20.6c0-12.101 9.79-21.92 21.87-21.92 11.36 0 20.7 8.68 21.78 19.77zm86.06 2.5h-34.81c.06 1.689.44 3.29 1.09 4.75 1.98 4.51 6.45 7.65 11.65 7.65s9.67-3.141 11.65-7.65h9.83c-2.29 9.64-10.94 16.82-21.271 16.82-12.08 0-21.88-9.82-21.88-21.92 0-12.101 9.8-21.92 21.88-21.92 12.08 0 21.87 9.82 21.87 21.92.001.12.001.23-.009.35zM425.4 64.4c-12.08 0-21.881-9.82-21.881-21.92 0-12.101 9.801-21.92 21.881-21.92s21.869 9.82 21.869 21.92c.001 12.1-9.789 21.92-21.869 21.92zm76.18 0c-12.08 0-21.87-9.82-21.87-21.92 0-12.101 9.79-21.92 21.87-21.92 12.09 0 21.88 9.82 21.88 21.92 0 12.1-9.79 21.92-21.88 21.92z"/><path d="M514.33 42.36c0 7.109-5.7 12.87-12.74 12.87-7.05 0-12.76-5.761-12.76-12.87 0-7.11 5.71-12.88 12.76-12.88 7.04 0 12.74 5.77 12.74 12.88zm-76.39 0c0 7.109-5.71 12.87-12.75 12.87s-12.75-5.761-12.75-12.87c0-7.11 5.71-12.88 12.75-12.88s12.75 5.77 12.75 12.88zm-306.19 0c0 7.109-5.71 12.87-12.75 12.87s-12.75-5.761-12.75-12.87c0-7.12 5.71-12.88 12.75-12.88s12.75 5.76 12.75 12.88zm-76.58.18c0 7.11-5.71 12.88-12.75 12.88s-12.75-5.77-12.75-12.88c0-7.11 5.71-12.87 12.75-12.87s12.75 5.76 12.75 12.87z"/></g><path d="M42.62 20.75c-12.08 0-21.87 9.81-21.87 21.92 0 12.1 9.79 21.91 21.87 21.91 12.09 0 21.88-9.811 21.88-21.91 0-12.11-9.79-21.92-21.88-21.92zm-.2 34.67c-7.04 0-12.75-5.77-12.75-12.88 0-7.11 5.71-12.87 12.75-12.87s12.75 5.76 12.75 12.87c0 7.11-5.71 12.88-12.75 12.88zm76.79-34.86c-12.08 0-21.88 9.82-21.88 21.92 0 12.1 9.8 21.92 21.88 21.92 12.08 0 21.87-9.82 21.87-21.92 0-12.1-9.79-21.92-21.87-21.92zM119 55.23c-7.04 0-12.75-5.761-12.75-12.87 0-7.12 5.71-12.88 12.75-12.88s12.75 5.76 12.75 12.88c0 7.11-5.71 12.87-12.75 12.87zm306.4-34.67c-12.08 0-21.881 9.82-21.881 21.92 0 12.1 9.801 21.92 21.881 21.92s21.869-9.82 21.869-21.92c.001-12.1-9.789-21.92-21.869-21.92zm-.21 34.67c-7.04 0-12.75-5.761-12.75-12.87 0-7.11 5.71-12.88 12.75-12.88s12.75 5.77 12.75 12.88c0 7.11-5.71 12.87-12.75 12.87zm76.39-34.67c-12.08 0-21.87 9.82-21.87 21.92 0 12.1 9.79 21.92 21.87 21.92 12.09 0 21.88-9.82 21.88-21.92 0-12.1-9.79-21.92-21.88-21.92zm.01 34.67c-7.05 0-12.76-5.761-12.76-12.87 0-7.11 5.71-12.88 12.76-12.88 7.04 0 12.74 5.77 12.74 12.88 0 7.11-5.7 12.87-12.74 12.87zM361.34 1.88v23.29c-3.33-2.34-7.33-4.34-11.67-4.59-.29-.01-.58-.02-.87-.02-12.08 0-21.88 9.82-21.88 21.92 0 12.1 9.8 21.92 21.88 21.92 12.08 0 21.87-9.82 21.87-21.92V6c-2.9-1.73-6.03-3.12-9.33-4.12zm-12.75 53.35c-7.04 0-12.75-5.761-12.75-12.87 0-7.11 5.71-12.88 12.75-12.88s12.75 5.77 12.75 12.88c0 7.11-5.71 12.87-12.75 12.87zm-54.51-12.75c0-12.101-9.79-21.92-21.87-21.92-12.08 0-21.88 9.82-21.88 21.92 0 12.1 9.8 21.92 21.88 21.92 10.33 0 18.98-7.181 21.271-16.82h-9.83c-1.98 4.51-6.45 7.65-11.65 7.65s-9.67-3.141-11.65-7.65c-.65-1.46-1.03-3.061-1.09-4.75h34.811c.008-.12.008-.23.008-.35zM260.88 35c2-2.92 5.7-4.96 9.5-5.42h.02c.53-.07 1.06-.1 1.6-.1s1.07.03 1.6.1h.03c3.82.46 7.61 2.5 9.62 5.42zm-43.47 5.33h-9.4c-.96-6.15-6.23-10.85-12.59-10.85-7.04 0-12.75 5.76-12.75 12.88v20.72h-8.91v-20.6c0-12.101 9.79-21.92 21.87-21.92 11.36 0 20.7 8.68 21.78 19.77z" fill="#FFF"/></svg>